<!DOCTYPE svg PUBLIC "-//W3C//DTD SVG 1.1//EN" "http://www.w3.org/Graphics/SVG/1.1/DTD/svg11.dtd">
<!-- Uploaded to: SVG Repo, www.svgrepo.com, Transformed by: SVG Repo Mixer Tools -->
<svg width="64px" height="64px" viewBox="0 0 24 24" xmlns="http://www.w3.org/2000/svg" fill="#000000">
<g id="SVGRepo_bgCarrier" stroke-width="0"/>
<g id="SVGRepo_tracerCarrier" stroke-linecap="round" stroke-linejoin="round"/>
<g id="SVGRepo_iconCarrier"> <defs> <style>.cls-1{fill:none;stroke:#020202;stroke-miterlimit:10;stroke-width:1.176;}</style> </defs> <g id="medical_center" data-name="medical center"> <line class="cls-1" x1="9.14" y1="7.23" x2="14.86" y2="7.23"/> <line class="cls-1" x1="12" y1="4.36" x2="12" y2="10.09"/> <line class="cls-1" x1="9.14" y1="14.86" x2="11.05" y2="14.86"/> <line class="cls-1" x1="12.95" y1="14.86" x2="14.86" y2="14.86"/> <line class="cls-1" x1="5.32" y1="14.86" x2="7.23" y2="14.86"/> <line class="cls-1" x1="5.32" y1="18.68" x2="7.23" y2="18.68"/> <line class="cls-1" x1="16.77" y1="14.86" x2="18.68" y2="14.86"/> <line class="cls-1" x1="16.77" y1="18.68" x2="18.68" y2="18.68"/> <path class="cls-1" d="M13.91,22.5H22.5V13L18.68,9.14v-1A6.68,6.68,0,0,0,12,1.5h0A6.68,6.68,0,0,0,5.32,8.18v1L1.5,13V22.5h8.59V18.68h3.82Z"/> </g> </g>
</svg>